<?xml version="1.0" standalone="no"?>
<!DOCTYPE svg PUBLIC "-//W3C//DTD SVG 20010904//EN"
 "http://www.w3.org/TR/2001/REC-SVG-20010904/DTD/svg10.dtd">
<svg version="1.0" xmlns="http://www.w3.org/2000/svg"
 width="512.000000pt" height="512.000000pt" viewBox="0 0 512.000000 512.000000"
 preserveAspectRatio="xMidYMid meet">
<metadata>
Created by potrace 1.11, written by Peter Selinger 2001-2013
</metadata>
<g transform="translate(0.000000,512.000000) scale(0.100000,-0.100000)"
fill="#000000" stroke="none">
<path d="M2115 4877 c-403 -88 -681 -213 -990 -447 -119 -90 -325 -293 -416
-410 -125 -160 -240 -351 -304 -501 -15 -35 -33 -77 -40 -94 -23 -50 -73 -207
-95 -302 -30 -123 -44 -206 -60 -353 -8 -76 -5 -424 4 -470 2 -14 7 -47 11
-75 21 -165 97 -445 155 -570 92 -200 163 -328 248 -449 79 -112 191 -241 296
-342 103 -99 321 -273 383 -305 16 -8 30 -17 33 -20 8 -11 231 -124 290 -148
30 -12 64 -26 75 -31 51 -22 145 -52 248 -79 116 -31 142 -37 215 -48 l42 -6
0 381 0 381 -72 21 c-226 66 -446 181 -608 317 -55 46 -178 170 -208 209 -12
16 -36 47 -53 69 -158 203 -258 456 -307 778 -19 125 -5 360 33 546 13 68 82
256 122 336 104 206 277 425 421 532 20 16 39 31 42 34 3 4 43 32 90 64 119
79 261 147 412 195 l128 42 0 379 0 379 -27 -2 c-16 -1 -46 -6 -68 -11z"/>
<path d="M2913 4510 l-1 -380 72 -21 c125 -36 164 -51 275 -106 177 -87 296
-170 425 -298 190 -187 320 -395 402 -641 58 -175 75 -278 79 -474 4 -210 -16
-341 -82 -539 -167 -507 -568 -886 -1099 -1040 l-71 -21 0 -381 -1 -381 52 7
c66 9 76 12 203 44 79 20 212 65 283 95 19 8 38 15 42 15 4 1 54 25 110 53
496 248 908 680 1124 1178 65 150 127 353 149 483 3 18 8 39 10 47 2 8 7 40
11 70 3 30 10 82 14 115 8 63 5 445 -5 505 -37 238 -89 448 -141 565 -7 17
-25 59 -39 94 -23 55 -99 207 -130 259 -29 48 -146 220 -162 237 -10 11 -36
43 -57 70 -21 28 -95 105 -163 173 -328 325 -712 531 -1173 631 -52 12 -102
21 -111 21 -15 0 -16 -33 -16 -380z"/>
<path d="M2265 3243 c-73 -14 -111 -54 -130 -137 -8 -36 -11 -182 -9 -486 5
-660 7 -686 73 -751 42 -43 95 -57 151 -42 38 10 867 520 948 583 83 65 85
177 5 251 -15 15 -122 82 -238 149 -115 67 -230 135 -255 150 -61 37 -376 223
-421 248 -45 25 -97 39 -124 35z"/>
</g>
</svg>
